<svg width="144" height="141" viewBox="0 0 144 141" fill="none" xmlns="http://www.w3.org/2000/svg">
<path d="M58.0214 3.83784C43.5075 2.09971 31.4741 6.375 22.4793 14.6811C13.7244 22.7659 8.37761 34.1527 5.7061 46.0434C0.443706 69.4667 4.84868 98.379 19.2349 115.985C26.978 125.461 39.1515 131.47 51.8964 134.653C64.7826 137.871 79.2125 138.454 92.5471 136.246C105.783 134.054 118.75 128.967 127.909 120.075C137.423 110.838 142.239 98.0108 139.471 82.3444C136.682 66.559 128.868 56.0204 117.981 50.5022C111.869 47.4037 105.213 46.1046 98.632 46.0278C98.5129 51.6933 97.5868 57.3311 96.0539 62.7814C101.423 62.5098 106.373 63.3502 110.427 65.4054C115.922 68.1905 120.995 73.812 123.017 85.2513C124.818 95.4466 121.821 102.7 116.27 108.088C110.364 113.822 101.015 117.907 89.8177 119.761C78.7185 121.599 66.5956 121.102 55.9446 118.443C45.1529 115.748 36.8041 111.081 32.1725 105.413C21.8093 92.7302 17.5726 69.4478 22.0081 49.7053C24.1856 40.0135 28.2732 32.0742 33.8152 26.9564C39.1176 22.06 46.2455 19.2554 56.0344 20.4276C68.9961 21.9799 74.7631 27.5413 77.3883 33.5671C77.8729 34.6796 78.2721 35.8586 78.5878 37.0945C80.0882 42.9649 79.6991 50.0863 77.6908 57.354C77.4863 58.094 77.2676 58.8258 77.0362 59.5478C76.6575 60.7293 76.2446 61.8848 75.8033 63.0082C75.2171 64.5004 74.5809 65.9361 73.9084 67.301C71.7267 71.7288 69.1633 75.4116 66.6885 77.8651L66.2221 78.3118C65.9351 78.5794 62.6722 81.4586 63.0743 79.8618C63.2571 79.1362 63.8738 77.8559 65.3345 76.1872L68.9252 71.1509C71.4433 67.2902 73.7997 62.266 75.3369 56.7033C75.9769 54.3873 76.4391 52.1026 76.723 49.8877C68.2069 52.9294 60.4374 57.5477 54.9292 62.9024C51.3443 66.3874 48.1389 70.75 46.8718 75.7814C45.4865 81.2827 46.6016 87.0456 50.802 91.7401C55.1504 96.5999 61.0394 98.2416 66.8698 96.7911C71.9778 95.5202 76.3343 92.0858 79.7207 88.4147C83.7478 84.0489 87.386 78.2808 90.2128 71.8532L91.5986 68.4854C92.1726 66.9845 92.7001 65.4593 93.1765 63.919C93.3937 63.2169 93.6002 62.5116 93.7957 61.804C97.1245 49.7577 97.3102 36.8192 91.9832 25.3332C86.349 13.8564 75.1243 5.88606 58.0214 3.83784Z" fill="#FFC66F"></path>
</svg>